<?xml version="1.0" encoding="UTF-8" standalone="no"?>
<!-- Created with Inkscape (http://www.inkscape.org/) -->
<svg
   xmlns:dc="http://purl.org/dc/elements/1.1/"
   xmlns:cc="http://web.resource.org/cc/"
   xmlns:rdf="http://www.w3.org/1999/02/22-rdf-syntax-ns#"
   xmlns:svg="http://www.w3.org/2000/svg"
   xmlns="http://www.w3.org/2000/svg"
   xmlns:xlink="http://www.w3.org/1999/xlink"
   xmlns:sodipodi="http://sodipodi.sourceforge.net/DTD/sodipodi-0.dtd"
   xmlns:inkscape="http://www.inkscape.org/namespaces/inkscape"
   width="744.09448819"
   height="1052.3622047"
   id="svg2177"
   sodipodi:version="0.32"
   inkscape:version="0.45.1"
   sodipodi:docbase="/home/robin"
   sodipodi:docname="icon.svg"
   inkscape:output_extension="org.inkscape.output.svg.inkscape">
  <defs
     id="defs2179">
    <linearGradient
       inkscape:collect="always"
       id="linearGradient2820">
      <stop
         style="stop-color:red;stop-opacity:1;"
         offset="0"
         id="stop2822" />
      <stop
         style="stop-color:red;stop-opacity:0;"
         offset="1"
         id="stop2824" />
    </linearGradient>
    <linearGradient
       inkscape:collect="always"
       xlink:href="#linearGradient2820"
       id="linearGradient2826"
       x1="8.6899736"
       y1="42.147599"
       x2="47.19458"
       y2="42.147599"
       gradientUnits="userSpaceOnUse"
       gradientTransform="matrix(5.698013,0,0,5.45075,122.76732,194.95421)" />
    <linearGradient
       inkscape:collect="always"
       id="linearGradient2828">
      <stop
         style="stop-color:lime;stop-opacity:1;"
         offset="0"
         id="stop2830" />
      <stop
         style="stop-color:lime;stop-opacity:0;"
         offset="1"
         id="stop2832" />
    </linearGradient>
    <linearGradient
       inkscape:collect="always"
       xlink:href="#linearGradient2828"
       id="linearGradient2834"
       x1="29.749166"
       y1="20.730871"
       x2="68.676781"
       y2="20.730871"
       gradientUnits="userSpaceOnUse"
       gradientTransform="matrix(5.698013,0,0,5.45075,122.76732,194.95421)" />
    <linearGradient
       inkscape:collect="always"
       id="linearGradient2836">
      <stop
         style="stop-color:blue;stop-opacity:1;"
         offset="0"
         id="stop2838" />
      <stop
         style="stop-color:blue;stop-opacity:0;"
         offset="1"
         id="stop2840" />
    </linearGradient>
    <linearGradient
       inkscape:collect="always"
       xlink:href="#linearGradient2836"
       id="linearGradient2842"
       x1="44.912956"
       y1="51.613906"
       x2="65.898417"
       y2="51.613906"
       gradientUnits="userSpaceOnUse"
       gradientTransform="matrix(5.698013,0,0,5.45075,122.76732,194.95421)" />
  </defs>
  <sodipodi:namedview
     id="base"
     pagecolor="#ffffff"
     bordercolor="#666666"
     borderopacity="1.0"
     gridtolerance="10000"
     guidetolerance="10"
     objecttolerance="10"
     inkscape:pageopacity="0.0"
     inkscape:pageshadow="2"
     inkscape:zoom="0.35"
     inkscape:cx="375"
     inkscape:cy="520"
     inkscape:document-units="px"
     inkscape:current-layer="layer1"
     inkscape:window-width="697"
     inkscape:window-height="573"
     inkscape:window-x="23"
     inkscape:window-y="23" />
  <metadata
     id="metadata2182">
    <rdf:RDF>
      <cc:Work
         rdf:about="">
        <dc:format>image/svg+xml</dc:format>
        <dc:type
           rdf:resource="http://purl.org/dc/dcmitype/StillImage" />
      </cc:Work>
    </rdf:RDF>
  </metadata>
  <g
     inkscape:label="Layer 1"
     inkscape:groupmode="layer"
     id="layer1">
    <path
       style="fill:url(#linearGradient2826);fill-opacity:1;fill-rule:evenodd;stroke:#000000;stroke-width:5.57301044px;stroke-linecap:butt;stroke-linejoin:miter;stroke-opacity:1"
       d="M 266.46534,262.52055 C 261.09901,266.79492 250.77484,272.87045 244.54532,278.8297 C 239.9444,283.23097 235.33779,285.3078 232.36747,288.14917 C 227.18286,293.10882 223.44879,297.97154 220.1897,302.12839 C 215.8706,307.63731 212.34393,314.80913 209.22968,320.7674 C 206.04176,326.86658 203.96279,334.3389 200.70523,340.57134 C 197.88734,345.96247 197.32796,347.29681 193.3985,351.05576 C 190.37057,353.95234 188.1018,361.18952 186.09183,365.03498 C 183.31399,370.34956 181.81644,375.54468 178.78516,381.34412 C 176.42014,385.86889 177.40436,394.93829 176.3496,399.98307 C 175.17136,405.61854 175.13182,409.83002 175.13182,416.29221 C 175.13182,422.96148 176.3496,425.94212 176.3496,432.6013 C 176.3496,438.46403 178.78516,443.79349 178.78516,450.07532 C 178.78516,455.90005 178.78516,461.72472 178.78516,467.54939 C 178.78516,473.37406 178.78516,479.19874 178.78516,485.02341 C 178.78516,490.84814 178.78516,496.67282 178.78516,502.49749 C 178.78516,508.32217 178.78516,514.14684 178.78516,519.97151 C 178.78516,525.75831 180.00293,531.209 180.00293,537.44558 C 180.00293,543.65857 180.00293,549.87156 180.00293,556.08454 C 180.00293,560.47817 182.78562,566.73226 183.65627,570.06382 C 185.432,576.85834 187.00448,579.89278 194.61634,581.71317 C 200.91053,583.21845 205.70194,584.04303 211.66524,584.04303 C 216.9106,584.04303 225.07779,586.66822 228.71414,587.53784 C 234.02451,588.8078 241.47472,587.53784 246.98088,587.53784 C 253.44003,587.53784 259.35593,588.45874 265.24757,589.86771 C 271.66586,591.40264 280.55139,589.86771 287.16763,589.86771 C 293.25653,589.86771 299.34543,589.86771 305.43432,589.86771 C 311.52327,589.86771 317.61217,589.86771 323.70106,589.86771 C 328.19953,589.86771 335.55332,587.61572 340.74997,586.3729 C 346.94011,584.89253 354.81835,584.17336 360.23448,582.8781 C 367.79928,581.06894 370.35775,580.94847 376.06561,578.21836 C 380.6149,576.04242 383.2418,567.98359 384.59006,565.40407 C 387.22038,560.37172 386.80791,554.58793 388.24345,549.09493 C 389.57104,544.01506 388.24345,536.88809 388.24345,531.62092 C 388.24345,525.79625 388.24345,519.97151 388.24345,514.14684 C 388.24345,508.32217 388.24345,502.49749 388.24345,496.67282 C 388.24345,490.31321 387.28437,484.8484 385.80785,479.19874 C 384.40147,473.81716 385.80785,466.11797 385.80785,460.55979 C 385.80785,454.73511 385.80785,448.91039 385.80785,443.08571 C 385.80785,437.26104 385.80785,431.43637 385.80785,425.61169 C 385.80785,420.26717 384.59006,413.9207 384.59006,408.13761 C 384.59006,402.31294 384.59006,396.48826 384.59006,390.6636 C 384.59006,383.94336 383.6789,379.02231 382.15451,373.18952 C 380.36767,366.35221 381.75855,362.32627 377.2834,358.04536 C 372.91456,353.86606 368.37547,349.52399 365.1056,346.39602 C 361.2701,342.72695 356.82298,341.96756 352.92782,338.24142 C 349.05129,334.53316 347.6404,330.45546 345.62108,326.59207 C 342.92296,321.42993 339.36615,317.11376 335.87885,313.77779 C 331.46244,309.55302 330.89896,305.5192 326.13662,300.96346 C 322.2634,297.2583 319.59815,292.23555 316.39439,288.14917 C 312.55193,283.24824 310.75068,278.09063 305.43432,273.00502 C 301.02794,268.78979 297.36594,266.12443 292.03875,264.85042 C 287.47898,263.76 281.88137,260.38266 276.20763,259.02575 C 272.31851,258.09569 269.64091,260.69793 266.46534,262.52055 z "
       id="path1927"
       inkscape:export-filename="/home/robin/icon_128.png"
       inkscape:export-xdpi="30.094791"
       inkscape:export-ydpi="30.094791" />
    <path
       style="fill:url(#linearGradient2834);fill-opacity:1;fill-rule:evenodd;stroke:#000000;stroke-width:5.57301044px;stroke-linecap:butt;stroke-linejoin:miter;stroke-opacity:1"
       d="M 295.69209,242.71667 C 299.46594,241.71498 308.60749,237.29807 315.17661,235.72705 C 321.68305,234.17103 326.2181,232.23226 333.4433,232.23226 C 340.90341,232.23226 350.26537,229.0138 357.79893,227.57246 C 365.80287,226.04118 369.60054,223.58518 377.2834,221.74779 C 382.59776,220.47689 384.36283,218.25298 391.8968,218.25298 C 397.71401,218.25298 404.97134,218.46747 408.9457,219.41791 C 413.38662,220.47999 419.72931,226.23876 422.34127,228.73739 C 427.27164,233.45382 430.00042,234.73066 434.51912,236.89199 C 438.65302,238.86925 444.99839,250.41133 449.13246,254.36601 C 454.27132,259.28188 458.20205,266.3224 462.52802,271.84009 C 466.79726,277.28534 469.61156,280.94606 474.70587,285.8193 C 480.01767,290.9006 481.21682,294.37758 485.66589,298.63359 C 490.8064,303.5511 493.61159,309.54474 497.84368,314.94273 C 501.0553,319.03907 503.07502,321.45654 505.1504,325.42714 C 508.18836,331.23944 511.23929,329.87539 511.23929,338.24142 C 511.23929,344.11777 506.79895,347.39983 503.93263,351.05576 C 500.11228,355.92846 497.52492,357.18534 494.19034,360.37523 C 490.58845,363.82082 487.51039,366.05001 482.01255,367.36485 C 479.28964,368.01605 473.79835,373.04115 471.05254,374.35446 C 466.69954,376.43653 461.64324,377.10752 457.65691,379.01425 C 452.5846,381.44032 449.23947,382.48343 444.26134,383.67399 C 439.27462,384.86656 435.60424,387.23218 430.86578,389.49866 C 426.69722,391.49248 423.34366,394.20991 418.68793,395.32333 C 414.12776,396.41391 407.67334,397.6532 401.63903,397.6532 C 393.26802,397.6532 392.56716,391.94621 389.46124,386.00385 C 386.45747,380.25707 383.35457,375.45152 382.15451,370.85965 C 380.83103,365.79536 374.67324,361.37316 372.41228,359.2103 C 368.8533,355.80576 366.88617,350.96751 365.1056,347.56096 C 362.32286,342.23698 358.11995,338.54857 354.14559,334.74661 C 349.33846,330.14809 346.37197,323.81558 341.96774,319.60247 C 336.27896,314.16049 331.22928,307.82083 324.91884,303.29332 C 319.04716,299.08066 318.08727,293.26339 313.95884,289.31411 C 310.82686,286.3181 308.81074,280.09988 307.86988,276.49982 C 306.59991,271.6402 303.61512,268.35951 301.78098,264.85042 C 298.98224,259.49582 297.70748,254.72707 295.69209,250.87121 C 294.42132,248.44001 295.69209,245.43485 295.69209,242.71667 z "
       id="path2816"
       inkscape:export-filename="/home/robin/icon_128.png"
       inkscape:export-xdpi="30.094791"
       inkscape:export-ydpi="30.094791" />
    <path
       style="fill:url(#linearGradient2842);fill-opacity:1;fill-rule:evenodd;stroke:#000000;stroke-width:5.57301044px;stroke-linecap:butt;stroke-linejoin:miter;stroke-opacity:1"
       d="M 384.59006,417.45714 C 381.66288,411.85682 383.74203,430.02173 382.15451,436.0961 C 380.75103,441.46641 382.15451,449.13686 382.15451,454.73511 C 382.15451,461.67692 384.59006,467.37513 384.59006,474.539 C 384.59006,482.34977 385.80785,489.37617 385.80785,496.67282 C 385.80785,504.63228 387.02568,512.27963 387.02568,519.97151 C 387.02568,525.79625 387.02568,531.62092 387.02568,537.44558 C 387.02568,543.27026 387.02568,549.09493 387.02568,554.91961 C 387.02568,561.73965 386.95319,566.43035 389.46124,571.22875 C 392.07486,576.22921 400.71099,575.88849 406.51015,575.88849 C 410.64109,575.88849 417.4661,571.81313 421.12349,570.06382 C 426.55563,567.46561 432.23358,565.65939 438.17244,564.23914 C 443.65821,562.9272 449.82328,561.57885 454.00357,559.57935 C 459.0797,557.15147 464.61994,555.66647 468.61698,553.75467 C 473.45766,551.43935 475.84998,549.16541 479.577,545.60013 C 484.22053,541.1581 486.49295,539.35803 489.31922,533.95079 C 491.70532,529.38573 491.75478,525.32078 491.75478,518.80658 C 491.75478,512.98191 491.75478,507.15723 491.75478,501.33256 C 491.75478,495.50788 491.75478,489.68321 491.75478,483.85848 C 491.75478,478.03381 491.75478,472.20913 491.75478,466.38446 C 491.75478,460.16842 492.97255,455.27719 492.97255,448.91039 C 492.97255,443.16616 494.19034,436.65127 494.19034,430.27143 C 494.19034,424.10271 495.40812,418.23813 495.40812,411.63242 C 495.40812,405.56606 495.32515,398.50052 494.19034,394.1584 C 492.75056,388.64922 491.53888,385.5908 489.31922,381.34412 C 487.37961,377.63324 479.92274,376.68433 474.70587,376.68433 C 470.41453,376.68433 465.69795,380.2948 461.31025,381.34412 C 455.80808,382.65993 451.7703,385.95545 446.6969,387.16879 C 442.08328,388.27213 436.74486,391.34641 433.30133,392.99347 C 428.84988,395.12258 425.03022,398.34512 421.12349,401.148 C 417.19192,403.96872 408.18251,404.82535 404.07458,405.80774 C 398.31549,407.18504 395.11833,408.34415 390.67902,410.46748 C 386.26402,412.57921 387.40756,410.71914 384.59006,417.45714 z "
       id="path2818"
       inkscape:export-filename="/home/robin/icon_128.png"
       inkscape:export-xdpi="30.094791"
       inkscape:export-ydpi="30.094791" />
    <path
       style="fill:#000000"
       d="M 172.14999,594.67609 C 170.06076,592.67746 168.35135,554.74474 168.35135,510.38118 C 168.35135,435.29877 167.56315,429.31668 156.95533,423.88588 C 150.68752,420.67696 145.60974,415.07179 145.67145,411.42987 C 145.7331,407.78795 173.29723,365.76434 206.92507,318.04404 L 268.06654,231.2799 L 307.95262,221.47334 C 412.95602,195.65673 407.47955,194.99931 443.09182,237.6963 C 454.74033,251.66211 479.80844,280.91129 498.79877,302.69445 C 534.80547,343.99649 536.32695,350.92309 513.39206,369.13132 C 506.10967,374.91299 504.53399,390.5228 504.53399,456.88663 L 504.53399,537.60933 L 488.86447,547.94183 C 480.24622,553.62468 454.73776,567.2823 432.179,578.29211 L 391.16312,598.30994 L 283.55589,598.30994 C 224.37192,598.30994 174.23928,596.67472 172.14999,594.67609 z M 242.42549,532.54253 C 242.42549,477.70011 247.528,467.49189 274.94085,467.49189 C 309.38168,467.49189 316.49964,478.4238 316.49964,531.31894 L 316.49964,577.10422 L 343.56518,575.4429 L 370.63074,573.78156 L 373.71467,478.3934 C 376.37473,396.1169 375.54402,381.50671 367.67119,372.10373 C 362.65113,366.1079 354.85306,355.99637 350.34222,349.63376 C 335.30449,328.42271 294.75962,278.50064 284.94661,269.1134 C 275.82962,260.39203 272.72694,263.5321 232.1967,322.49894 L 189.13354,385.15086 L 190.5981,476.61007 C 191.40357,526.91261 193.28916,569.96772 194.78831,572.28805 C 196.2874,574.60843 207.61903,576.50693 219.96969,576.50693 L 242.42549,576.50693 L 242.42549,532.54253 z M 443.53075,549.25317 C 461.23435,541.75838 476.95368,532.66021 478.46257,529.03508 C 483.44497,517.06446 483.14144,395.78594 478.11761,391.21139 C 475.41014,388.74608 455.88723,394.19023 434.73336,403.30956 L 396.27179,419.89014 L 396.27179,489.11393 C 396.27179,553.46317 398.50255,568.11915 407.72445,564.35628 C 409.71424,563.54433 425.82714,556.74796 443.53075,549.25317 z M 446.28613,377.16012 C 461.21247,369.44844 479.58964,358.69062 487.12429,353.25383 L 500.82368,343.36878 L 481.59334,319.58099 C 430.66509,256.58306 402.34085,227.6588 391.57816,227.6588 C 387.29787,227.6588 366.12742,232.79248 344.53277,239.06706 C 309.63011,249.2084 305.89375,251.59087 310.8892,260.51986 C 322.93685,282.05419 411.7681,391.18136 417.2498,391.18136 C 418.2934,391.18136 431.35979,384.87179 446.28613,377.16012 z "
       id="path1873"
       inkscape:export-filename="/home/robin/icon_128.png"
       inkscape:export-xdpi="30.094791"
       inkscape:export-ydpi="30.094791" />
  </g>
</svg>
