/* XPM */ 
static char * logo32bit_xpm[] = {
"64 64 248 2",
"  	c None",
"! 	c black",
"# 	c #000500",
"$ 	c #002400",
"% 	c #006800",
"& 	c #00A300",
"' 	c #00AC00",
"( 	c #000F00",
") 	c #002300",
"* 	c #006500",
"+ 	c #009D00",
", 	c #00CD00",
"- 	c #00F400",
". 	c #00FF00",
"0 	c #00AA00",
"1 	c #000400",
"2 	c #000100",
"3 	c #002500",
"4 	c #00A000",
"5 	c #00CE00",
"6 	c #00F300",
"7 	c #00FE00",
"8 	c #008700",
"9 	c #003300",
": 	c #007D00",
"; 	c #00BC00",
"< 	c #005600",
"= 	c #004400",
"> 	c #00F200",
"? 	c #003A00",
"@ 	c #007B00",
"A 	c #00DF00",
"B 	c #002200",
"C 	c #0A0000",
"D 	c #640000",
"E 	c #030000",
"F 	c #000700",
"G 	c #00BB00",
"H 	c #00C500",
"I 	c #001200",
"J 	c #6D0000",
"K 	c #FF0000",
"L 	c #6C0000",
"M 	c #00E700",
"N 	c #00A900",
"O 	c #000B00",
"P 	c #2C0000",
"Q 	c #F10000",
"R 	c #EF0000",
"S 	c #320000",
"T 	c #005400",
"U 	c #080000",
"V 	c #BC0000",
"W 	c #FE0000",
"X 	c #CA0000",
"Y 	c #0D0000",
"Z 	c #009200",
"[ 	c #008200",
"] 	c #750000",
"^ 	c #930000",
"_ 	c #000E00",
"` 	c #006100",
"a 	c #280000",
"b 	c #F30000",
"c 	c #FC0000",
"d 	c #4D0000",
"e 	c #003700",
"f 	c #00FB00",
"g 	c #00F600",
"h 	c #003900",
"i 	c #050000",
"j 	c #B40000",
"k 	c #DC0000",
"l 	c #160000",
"m 	c #006C00",
"n 	c #00DB00",
"o 	c #001E00",
"p 	c #670000",
"q 	c #A80000",
"r 	c #00C200",
"s 	c #000D00",
"t 	c #390000",
"u 	c #6E0000",
"v 	c #001300",
"w 	c #00D500",
"x 	c #00A600",
"y 	c #0C0000",
"z 	c #CD0000",
"{ 	c #F00000",
"| 	c #340000",
"} 	c #003D00",
"~ 	c #8A0000",
" !	c #007800",
"!!	c #00FD00",
"#!	c #430000",
"$!	c #F70000",
"%!	c #950000",
"&!	c #000200",
"'!	c #00B500",
"(!	c #00F500",
")!	c #005100",
"*!	c #D20000",
"+!	c #570000",
",!	c #001D00",
"-!	c #00E200",
".!	c #00BF00",
"0!	c #000600",
"1!	c #810000",
"2!	c #DF0000",
"3!	c #180000",
"4!	c #005D00",
"5!	c #00ED00",
"6!	c #008C00",
"7!	c #001800",
"8!	c #380000",
"9!	c #F40000",
":!	c #BA0000",
";!	c #009900",
"<!	c #00F800",
"=!	c #00A100",
">!	c #002800",
"?!	c #090000",
"@!	c #C90000",
"A!	c #840000",
"B!	c #00D000",
"C!	c #00B600",
"D!	c #003C00",
"E!	c #850000",
"F!	c #480000",
"G!	c #003600",
"H!	c #00C900",
"I!	c #005300",
"J!	c #3E0000",
"K!	c #1B0000",
"L!	c #006E00",
"M!	c #00D100",
"N!	c #006A00",
"O!	c #0E0000",
"P!	c #CF0000",
"Q!	c #AB0000",
"R!	c #040000",
"S!	c #00A700",
"T!	c #00E000",
"U!	c #007600",
"V!	c #8F0000",
"W!	c #6F0000",
"X!	c #001400",
"Y!	c #00C700",
"Z!	c #009300",
"[!	c #001900",
"]!	c #000014",
"^!	c #000002",
"_!	c #3A0000",
"`!	c #FB0000",
"a!	c #330000",
"b!	c #00001F",
"c!	c #000091",
"d!	c #0000AA",
"e!	c #000001",
"f!	c #130000",
"g!	c #B10000",
"h!	c #C20000",
"i!	c #000005",
"j!	c #000065",
"k!	c #0000E8",
"l!	c #0000FF",
"m!	c #0000B8",
"n!	c #2D0000",
"o!	c #F60000",
"p!	c #000049",
"q!	c #0000C2",
"r!	c #0000B5",
"s!	c #E20000",
"t!	c #1F0000",
"u!	c #00003F",
"v!	c #0000B9",
"w!	c #0000FE",
"x!	c #0000B7",
"y!	c #0B0000",
"z!	c #E10000",
"{!	c #210000",
"|!	c #00002C",
"}!	c #0000A6",
"~!	c #0000F9",
" #	c #000039",
"!#	c #000096",
"##	c #0000AE",
"$#	c #0000EF",
"%#	c #000068",
"&#	c #0000BB",
"'#	c #200000",
"(#	c #000062",
")#	c #0000BD",
"*#	c #F20000",
"+#	c #0000BE",
",#	c #0000BF",
"-#	c #D50000",
".#	c #730000",
"0#	c #720000",
"1#	c #7D0000",
"2#	c #0000C1",
"3#	c #FD0000",
"4#	c #0000C3",
"5#	c #000003",
"6#	c #D70000",
"7#	c #0000C4",
"8#	c #C40000",
"9#	c #540000",
":#	c #0000C7",
";#	c #0000C8",
"<#	c #000004",
"=#	c #560000",
">#	c #DA0000",
"?#	c #0000CA",
"@#	c #1D0000",
"A#	c #0000CB",
"B#	c #D80000",
"C#	c #1C0000",
"D#	c #0000CD",
"E#	c #000006",
"F#	c #0000D0",
"G#	c #0000DA",
"H#	c #0000DB",
"I#	c #00005F",
"J#	c #0000DF",
"K#	c #00006D",
"L#	c #0000E2",
"M#	c #000072",
"N#	c #000016",
"O#	c #000019",
"P#	c #0000E4",
"Q#	c #000071",
"R#	c #ED0000",
"S#	c #190000",
"T#	c #00006A",
"U#	c #0000F0",
"V#	c #000095",
"W#	c #000021",
"X#	c #000031",
"Y#	c #EE0000",
"Z#	c #5F0000",
"[#	c #E80000",
"]#	c #060000",
"^#	c #740000",
"_#	c #860000",
"`#	c #310000",
"a#	c #770000",
"b#	c #7B0000",
"                                                                                ! ! !                                           ",
"                                                                        ! ! ! ! ! ! ! !                                         ",
"                                                                ! ! ! ! ! ! ! ! ! ! ! ! !                                       ",
"                                                        ! ! ! ! ! ! ! ! ! ! ! ! ! ! ! ! !                                       ",
"                                                ! ! ! ! ! ! ! ! ! ! ! ! ! ! ! ! ! ! ! ! ! !                                     ",
"                                          ! ! ! ! ! ! ! ! ! ! ! ! ! ! ! # $ % & ' ( ! ! ! ! !                                   ",
"                                        ! ! ! ! ! ! ! ! ! ! ! ! # ) * + , - . . . 0 1 ! ! ! ! !                                 ",
"                                      ! ! ! ! ! ! ! ! ! 2 3 % 4 5 6 . . . . . 7 . . 8 ! ! ! ! ! !                               ",
"                                      ! ! ! ! ! ! ! 9 : ; - . . . . . 7 7 7 7 7 7 . . < ! ! ! ! ! !                             ",
"                                    ! ! ! ! ! ! ! ! = . . . . 7 7 7 7 7 7 7 7 7 7 7 . > ? ! ! ! ! ! !                           ",
"                                  ! ! ! ! ! ! ! ! ! ! @ . . 7 7 7 7 7 7 7 7 7 7 7 7 7 . A B ! ! ! ! !                           ",
"                                  ! ! ! ! C D E ! ! ! F G . 7 7 7 7 7 7 7 7 7 7 7 7 7 7 . H I ! ! ! ! !                         ",
"                                ! ! ! ! ! J K L ! ! ! ! $ M . 7 7 7 7 7 7 7 7 7 7 7 7 7 . . N O ! ! ! ! !                       ",
"                              ! ! ! ! ! P Q K R S ! ! ! ! T . . 7 7 7 7 7 7 7 7 7 7 7 7 7 . . & ! ! ! ! ! !                     ",
"                            ! ! ! ! ! U V K W K X Y ! ! ! ! Z . . 7 7 7 7 7 7 7 7 7 7 7 7 7 . . [ ! ! ! ! ! !                   ",
"                            ! ! ! ! ! ] K K W K K ^ ! ! ! ! _ , . 7 7 7 7 7 7 7 7 7 7 7 7 7 7 . . ` ! ! ! ! ! !                 ",
"                          ! ! ! ! ! a b K W W W K c d ! ! ! ! e f . 7 7 7 7 7 7 7 7 7 7 7 7 7 7 . g h ! ! ! ! !                 ",
"                          ! ! ! ! i j K W W W W W K k l ! ! ! ! m . . 7 7 7 7 7 7 7 7 7 7 7 7 7 7 . n o ! ! ! ! !               ",
"                        ! ! ! ! ! p K K W W W W W W K q ! ! ! ! ! & . . 7 7 7 7 7 7 7 7 7 7 7 7 7 7 . r s ! ! ! ! !             ",
"                      ! ! ! ! ! t R K W W W W W W W K K u ! ! ! ! v w . 7 7 7 7 7 7 7 7 7 7 7 7 7 7 7 . x 2 ! ! ! ! !           ",
"                      ! ! ! ! y z K W W W W W W W W W K { | ! ! ! ! } g . 7 7 7 7 7 7 7 7 7 7 7 7 7 7 . . 8 ! ! ! ! ! !         ",
"                    ! ! ! ! ! ~ K K W W W W W W W W W W K z Y ! ! ! !  !. . 7 7 7 7 7 7 7 7 7 7 7 7 7 7 . !!% ! ! ! ! ! !       ",
"                  ! ! ! ! ! #!$!K W W W W W W W W W W W K K %!! ! ! ! &!'!. 7 7 7 7 7 7 7 7 7 7 7 7 7 7 7 . (!)!2 ! ! ! !       ",
"                ! ! ! ! ! Y *!K W W W W W W W W W W W W W K c +!! ! ! ! ,!-!. 7 7 7 7 7 7 7 7 7 7 7 7 7 7 . . .!0!! ! ! ! !     ",
"                ! ! ! ! ! 1!K K W W W W W W W W W W W W W W K 2!3!! ! ! ! 4!7 . 7 7 7 7 7 7 7 7 7 7 7 . . 5!6!7!! ! ! ! ! !     ",
"              ! ! ! ! ! 8!9!K W W W W W W W W W W W W W W W W K :!C ! ! ! ! ;!. 7 7 7 7 7 7 7 7 7 . . <!=!>!! ! ! ! ! ! ! !     ",
"              ! ! ! ! ?!@!K W W W W W W W W W W W W W W W W W K K A!! ! ! ! s B!. 7 7 7 7 7 7 . . . C!D!! ! ! ! ! ! ! ! !       ",
"            ! ! ! ! ! E!K K W W W W W W W W W W W W W W W W W W K c F!! ! ! ! G!> . 7 7 7 . . . H!I!! ! ! ! ! ! ! ! !           ",
"          ! ! ! ! ! J!$!K W W W W W W W W W W W W W W W W W W W W K 2!K!! ! ! ! L!. . 7 . . M!N!0!! ! ! ! ! ! ! ! !             ",
"        ! ! ! ! ! O!P!K W W W W W W W W W W W W W W W W W W W W W K K Q!R!! ! ! ! S!. . T!U!s ! ! ! ! ! ! ! ! ! ! !             ",
"        ! ! ! ! ! V!K K W W W W W W W W W W W W W W W W W W W W W W K K W!! ! ! ! X!Y!Z![!! ! ! ! ! ! ! ]!^!! ! ! !             ",
"      ! ! ! ! ! _!c K W W W W W W W W W W W W W W W W W W W W W W W W K `!a!! ! ! ! # ! ! ! ! ! ! ! b!c!d!e!! ! ! !             ",
"      ! ! ! ! ! f!g!K K W W W W W W W W W W W W W W W W W W W W W W W K h!K!! ! ! ! ! ! ! ! ! ! i!j!k!l!m!! ! ! ! !             ",
"    ! ! ! ! ! ! ! n!o!K W W W W W W W W W W W W W W W W W W W W W W K c J!! ! ! ! ! ! ! ! ! ! p!q!l!l!l!r!! ! ! ! !             ",
"    ! ! ! ! ! ! ! ?!s!K W W W W W W W W W W W W W W W W W W W W W W K 9!t!! ! ! ! ! ! ! ! u!v!l!l!l!w!l!x!! ! ! ! !             ",
"      ! ! ! ! ! ! y!z!K W W W W W W W W W W W W W W W W W W W W W W K 9!{!! ! ! ! ! ! |!}!~!l!l!w!w!w!l!m!! ! ! ! !             ",
"        ! ! ! ! ! y!z!K W W W W W W W W W W W W W W W W W W W W W W K 9!{!! ! !  #!###$#l!l!w!w!w!w!w!l!v!! ! ! ! !             ",
"          ! ! ! ! y!z!K W W W W W W W W W W W W W W W W W W W W W W K 9!{!! ! ! %#l!l!l!w!w!w!w!w!w!w!l!&#e!! ! ! !             ",
"          ! ! ! ! y!z!K W W W W W W W W W W W W W W W W W W W W W W K b '#! ! ! (#l!l!w!w!w!w!w!w!w!w!l!)#e!! ! ! !             ",
"          ! ! ! ! y!z!K W W W W W W W W W W W W W W W W W W W W W W K *#t!! ! ! (#l!l!w!w!w!w!w!w!w!w!l!+#e!! ! ! !             ",
"          ! ! ! ! y!z!K W W W W W W K K K K K K K K K W W W W W W W K *#t!! ! ! (#l!l!w!w!w!w!w!w!w!w!l!,#^!! ! ! !             ",
"          ! ! ! ! y!z!K W W W W W K K -#^ ] .#0#1#Q!b K W W W W W W K *#t!! ! ! (#l!l!w!w!w!w!w!w!w!w!l!2#^!! ! ! !             ",
"          ! ! ! ! y!z!K W W W W K 3#A!Y ! ! ! ! ! ! a!X K W W W W W K *#t!! ! ! (#l!l!w!w!w!w!w!w!w!w!l!4#5#! ! ! !             ",
"          ! ! ! ! y!z!K W W W K K E!! ! ! ! ! ! ! ! ! K!6#K W W W W K *#t!! ! ! (#l!l!w!w!w!w!w!w!w!w!l!7#5#! ! ! !             ",
"          ! ! ! ! y!z!K W W W K 8#i ! ! ! ! ! ! ! ! ! ! 9#W K W W W K *#t!! ! ! (#l!l!w!w!w!w!w!w!w!w!l!:#5#! ! ! !             ",
"          ! ! ! ! y!z!K W W K K L ! ! ! ! ! ! ! ! ! ! ! l R K W W W K *#t!! ! ! (#l!l!w!w!w!w!w!w!w!w!l!;#<#! ! ! !             ",
"          ! ! ! ! y!z!K W W K K =#! ! ! ! ! ! ! ! ! ! ! U >#K W W W K *#t!! ! ! (#l!l!w!w!w!w!w!w!w!w!l!?#i!! ! ! !             ",
"          ! ! ! ! y!z!K W W K K =#! ! ! ! ! ! ! ! ! ! ! ?!6#K W W W K Q @#! ! ! (#l!l!w!w!w!w!w!w!w!w!l!A#i!! ! ! !             ",
"          ! ! ! ! y!z!K W W K K =#! ! ! ! ! ! ! ! ! ! ! ?!B#K W W W K { C#! ! ! (#l!l!w!w!w!w!w!w!w!w!l!D#E#! ! ! !             ",
"          ! ! ! ! y!z!K W W K K =#! ! ! ! ! ! ! ! ! ! ! ?!B#K W W W K { C#! ! ! (#l!l!w!w!w!w!w!w!w!w!l!F#E#! ! ! !             ",
"          ! ! ! ! y!z!K W W K K =#! ! ! ! ! ! ! ! ! ! ! ?!B#K W W W K { C#! ! ! (#l!l!w!w!w!w!w!w!w!l!l!G#E#! ! ! !             ",
"          ! ! ! ! y!z!K W W K K =#! ! ! ! ! ! ! ! ! ! ! ?!B#K W W W K { C#! ! ! (#l!l!w!w!w!w!w!l!l!l!H#I#^!! ! ! !             ",
"          ! ! ! ! y!z!K W W K K =#! ! ! ! ! ! ! ! ! ! ! ?!B#K W W W K { C#! ! ! (#l!l!w!w!w!l!l!l!J#K#]!! ! ! ! ! !             ",
"          ! ! ! ! y!z!K W W K K =#! ! ! ! ! ! ! ! ! ! ! ?!B#K W W W K { C#! ! ! (#l!l!w!l!l!l!L#M#N#! ! ! ! ! ! ! !             ",
"          ! ! ! ! y!z!K W W K K =#! ! ! ! ! ! ! ! ! ! ! ?!B#K W W W K { C#! ! ! (#l!l!l!l!J#K#O#! ! ! ! ! ! ! ! !               ",
"          ! ! ! ! y!z!K W W K K =#! ! ! ! ! ! ! ! ! ! ! ?!B#K W W W K R K!! ! ! (#l!l!P#Q#N#! ! ! ! ! ! ! ! ! !                 ",
"          ! ! ! ! y!z!K W W K K =#! ! ! ! ! ! ! ! ! ! ! ?!B#K W W W K R#S#! ! ! T#U#V#W#! ! ! ! ! ! ! ! ! !                     ",
"          ! ! ! ! y!z!K W W K K =#! ! ! ! ! ! ! ! ! ! ! ?!B#K W W W K R#S#! ! ! X#|!! ! ! ! ! ! ! ! ! !                         ",
"          ! ! ! ! y Y#K K K K K Z#! ! ! ! ! ! ! ! ! ! ! C [#K K K K K `!K!! ! ! ! ! ! ! ! ! ! ! ! !                             ",
"          ! ! ! ! ]#^#_#A!A!E!_#`#! ! ! ! ! ! ! ! ! ! ! ]#a#_#A!A!A!E!b#Y ! ! ! ! ! ! ! ! ! ! !                                 ",
"          ! ! ! ! ! ! ! ! ! ! ! ! ! ! ! ! ! ! ! ! ! ! ! ! ! ! ! ! ! ! ! ! ! ! ! ! ! ! ! ! !                                     ",
"          ! ! ! ! ! ! ! ! ! ! ! ! ! ! ! ! ! ! ! ! ! ! ! ! ! ! ! ! ! ! ! ! ! ! ! ! ! ! !                                         ",
"            ! ! ! ! ! ! ! ! ! ! ! ! ! ! ! ! ! ! ! ! ! ! ! ! ! ! ! ! ! ! ! ! ! ! ! !                                             ",
"            ! ! ! ! ! ! ! ! ! ! ! ! ! ! ! ! ! ! ! ! ! ! ! ! ! ! ! ! ! ! ! ! ! !                                                 "};