<?xml version="1.0" encoding="UTF-8" standalone="no"?>
<!-- Created with Inkscape (http://www.inkscape.org/) -->

<svg
   xmlns:dc="http://purl.org/dc/elements/1.1/"
   xmlns:cc="http://creativecommons.org/ns#"
   xmlns:rdf="http://www.w3.org/1999/02/22-rdf-syntax-ns#"
   xmlns:svg="http://www.w3.org/2000/svg"
   xmlns="http://www.w3.org/2000/svg"
   xmlns:xlink="http://www.w3.org/1999/xlink"
   xmlns:sodipodi="http://sodipodi.sourceforge.net/DTD/sodipodi-0.dtd"
   xmlns:inkscape="http://www.inkscape.org/namespaces/inkscape"
   width="259.8974"
   height="219.69283"
   id="svg2"
   sodipodi:version="0.32"
   inkscape:version="0.48.5 r10040"
   sodipodi:docname="icon.svg"
   inkscape:output_extension="org.inkscape.output.svg.inkscape"
   inkscape:export-filename="/home/robin/workspace/sheltermanager/logo/asm2009/logo_215.png"
   inkscape:export-xdpi="40.740002"
   inkscape:export-ydpi="40.740002"
   version="1.1">
  <defs
     id="defs4">
    <linearGradient
       inkscape:collect="always"
       id="linearGradient4607">
      <stop
         style="stop-color:#000000;stop-opacity:1;"
         offset="0"
         id="stop4609" />
      <stop
         style="stop-color:#000000;stop-opacity:0;"
         offset="1"
         id="stop4611" />
    </linearGradient>
    <inkscape:perspective
       sodipodi:type="inkscape:persp3d"
       inkscape:vp_x="0 : 526.18109 : 1"
       inkscape:vp_y="0 : 1000 : 0"
       inkscape:vp_z="744.09448 : 526.18109 : 1"
       inkscape:persp3d-origin="372.04724 : 350.78739 : 1"
       id="perspective10" />
    <inkscape:perspective
       id="perspective2454"
       inkscape:persp3d-origin="372.04724 : 350.78739 : 1"
       inkscape:vp_z="744.09448 : 526.18109 : 1"
       inkscape:vp_y="0 : 1000 : 0"
       inkscape:vp_x="0 : 526.18109 : 1"
       sodipodi:type="inkscape:persp3d" />
    <linearGradient
       inkscape:collect="always"
       xlink:href="#linearGradient4607"
       id="linearGradient4615"
       x1="133.82089"
       y1="628.76007"
       x2="608.74469"
       y2="628.76007"
       gradientUnits="userSpaceOnUse" />
  </defs>
  <sodipodi:namedview
     id="base"
     pagecolor="#ffffff"
     bordercolor="#666666"
     borderopacity="1.0"
     gridtolerance="10000"
     guidetolerance="10"
     objecttolerance="10"
     inkscape:pageopacity="0.0"
     inkscape:pageshadow="2"
     inkscape:zoom="1.4"
     inkscape:cx="-86.788929"
     inkscape:cy="62.021528"
     inkscape:document-units="px"
     inkscape:current-layer="layer1"
     showgrid="false"
     inkscape:window-width="1440"
     inkscape:window-height="834"
     inkscape:window-x="0"
     inkscape:window-y="27"
     inkscape:window-maximized="1"
     fit-margin-top="0"
     fit-margin-left="0"
     fit-margin-right="0"
     fit-margin-bottom="0" />
  <metadata
     id="metadata7">
    <rdf:RDF>
      <cc:Work
         rdf:about="">
        <dc:format>image/svg+xml</dc:format>
        <dc:type
           rdf:resource="http://purl.org/dc/dcmitype/StillImage" />
        <dc:title />
      </cc:Work>
    </rdf:RDF>
  </metadata>
  <g
     inkscape:label="Layer 1"
     inkscape:groupmode="layer"
     id="layer1"
     transform="translate(-203.78779,-372.02681)">
    <g
       id="g3769"
       transform="translate(-29.285714,40.714286)"
       inkscape:export-xdpi="300.94"
       inkscape:export-ydpi="300.94"
       inkscape:export-filename="/home/polly/workspace/asm3/logo/asm2009/asmlogoflat2015.png"
       style="stroke:#00800f;stroke-opacity:0.94117647">
      <path
         sodipodi:nodetypes="cccccccc"
         id="path3263"
         d="m 267.17532,550.44996 191.69376,0 0,-156.5804 33.54642,0 -128.89705,-62.00164 -129.88955,61.38604 33.54642,0.30781 0,156.88819 z"
         style="fill:#ffffff;fill-rule:evenodd;stroke:#00800f;stroke-width:1.11079168px;stroke-linecap:butt;stroke-linejoin:miter;stroke-opacity:0.94117647"
         inkscape:connector-curvature="0" />
      <path
         id="path2460"
         d="m 315.94775,511.96087 c -7.55521,-5.85964 -7.53737,-13.24906 0.0646,-26.77565 10.92837,-19.44534 31.3384,-35.91473 44.50807,-35.91473 10.32419,0 18.21413,4.13266 29.46563,15.43373 19.34872,19.434 25.95328,40.47032 15.07266,48.00825 -6.42275,4.44957 -17.44587,4.86872 -29.39663,1.11779 -7.18829,-2.25615 -10.55437,-2.26271 -20.85826,-0.0407 -19.37824,4.17888 -31.86808,3.59107 -38.8561,-1.82868 z m 87.61949,-39.42894 c -9.12646,-9.06242 -7.86954,-23.53566 3.06112,-35.24859 14.76112,-15.8175 33.59333,-9.56462 33.59333,11.15404 0,21.40826 -23.68233,36.97567 -36.65445,24.09455 z m -100.665,-7.15272 C 289.8409,458.19744 282.73067,442.10212 287.2,429.83433 c 7.63503,-20.9573 38.23211,-7.16925 40.57306,18.28355 0.87859,9.55274 0.35423,11.33783 -4.65789,15.85705 -6.70086,6.0419 -11.20901,6.35511 -20.21293,1.40428 z m 76.94024,-30.33016 c -10.20165,-5.3865 -13.6168,-16.12165 -9.64887,-30.33013 6.57121,-23.53037 31.3467,-30.70674 39.47344,-11.43373 8.62974,20.46586 -12.94449,50.67659 -29.82457,41.76386 z m -44.55084,-2.73682 c -8.14301,-5.14271 -13.63278,-17.23753 -13.63278,-30.03512 0,-18.38733 9.36708,-27.02963 22.98235,-21.20411 16.27387,6.96305 23.37116,38.46041 11.14937,49.48035 -6.1963,5.58697 -13.45176,6.20952 -20.49894,1.75888 z"
         style="fill:#009d00;fill-opacity:1;stroke:#00800f;stroke-width:1.1757251;stroke-opacity:0.94117647"
         inkscape:connector-curvature="0" />
    </g>
  </g>
</svg>
