/* XPM */
static char *asm[] = {
/* columns rows colors chars-per-pixel */
"62 64 90 1",
"  c #000000",
". c #00000C",
"X c #000B00",
"o c #0C0000",
"O c #000013",
"+ c #00001A",
"@ c #001300",
"# c #001D00",
"$ c #130000",
"% c #1C0000",
"& c #000023",
"* c #00002C",
"= c #000035",
"- c #00003B",
"; c #002400",
": c #002C00",
"> c #003200",
", c #003C00",
"< c #240000",
"1 c #2C0000",
"2 c #340000",
"3 c #3C0000",
"4 c #000044",
"5 c #00004A",
"6 c #000053",
"7 c #000059",
"8 c #000063",
"9 c #00006E",
"0 c #00007C",
"q c #004300",
"w c #004C00",
"e c #005500",
"r c #005C00",
"t c #006200",
"y c #006C00",
"u c #007400",
"i c #430000",
"p c #4B0000",
"a c #540000",
"s c #5B0000",
"d c #610000",
"f c #6C0000",
"g c #740000",
"h c #7D0000",
"j c #000086",
"k c #000095",
"l c #00009E",
"z c #0000A3",
"x c #0000AA",
"c c #0000B6",
"v c #0000C9",
"b c #0000D1",
"n c #0000DB",
"m c #0000E3",
"M c #0000EB",
"N c #0000F3",
"B c #0000FE",
"V c #008100",
"C c #008B00",
"Z c #009200",
"A c #009E00",
"S c #00A400",
"D c #00A900",
"F c #00B500",
"G c #00BC00",
"H c #00C300",
"J c #00CD00",
"K c #00D500",
"L c #00DB00",
"P c #00E300",
"I c #00EC00",
"U c #00F400",
"Y c #00FE00",
"T c #840000",
"R c #8C0000",
"E c #950000",
"W c #9B0000",
"Q c #A40000",
"! c #AD0000",
"~ c #B40000",
"^ c #BC0000",
"/ c #C40000",
"( c #CB0000",
") c #D30000",
"_ c #DB0000",
"` c #E40000",
"' c #ED0000",
"] c #F50000",
"[ c #FE0000",
"{ c None",
/* pixels */
"{{{{{{{{{{{{{{{{{{{{{{{{{{{{{                 {{{{{{{{{{{{{{{{",
"{{{{{{{{{{{{{{{{{{{{{{{{{{                    {{{{{{{{{{{{{{{{",
"{{{{{{{{{{{{{{{{{{{{{{                         {{{{{{{{{{{{{{{",
"{{{{{{{{{{{{{{{{{{{                   X@@       {{{{{{{{{{{{{{",
"{{{{{{{{{{{{{{{{{{               XX#>rZHC;X      {{{{{{{{{{{{{",
"{{{{{{{{{{{{{{{{{{            @#,yALYYYYYKw       {{{{{{{{{{{{",
"{{{{{{{{{{{{{{{{{          X;,VJYYYYYYYYYYLeX      {{{{{{{{{{{",
"{{{{{{{{{{{{{{{{          #uHYYYYYYYYYYYYYYPeX     {{{{{{{{{{{",
"{{{{{{{{{{{{{{{{          tIYYYYYYYYYYYYYYYYLw      {{{{{{{{{{",
"{{{{{{{{{{{{{{{      o    >JYYYYYYYYYYYYYYYYYH,      {{{{{{{{{",
"{{{{{{{{{{{{{{      3g2    rPYYYYYYYYYYYYYYYYYD;      {{{{{{{{",
"{{{{{{{{{{{{{{     i([(2    VUYYYYYYYYYYYYYYYYYC#      {{{{{{{",
"{{{{{{{{{{{{{     <![[[Q<   @DUYYYYYYYYYYYYYYYYYu@      {{{{{{",
"{{{{{{{{{{{{     $R[[[[[T$   >HYYYYYYYYYYYYYYYYYYrX      {{{{{",
"{{{{{{{{{{{     os`[[[[[[so   wPYYYYYYYYYYYYYYYYYUqX      {{{{",
"{{{{{{{{{{{     3([[[[[[['i    uUYYYYYYYYYYYYYYYYYK>      {{{{",
"{{{{{{{{{{o    <![[[[[[[[[(<   @ZUYYYYYYYYYYYYYYYYYF#      {{{",
"{{{{{{{{{     $T][[[[[[[[[[Q%   ;GYYYYYYYYYYYYYYYYYYZ#      {{",
"{{{{{{{{{     s`[[[[[[[[[[[[To   qLYYYYYYYYYYYYYYYYYYyX      {",
"{{{{{{{{     3([[[[[[[[[[[[[]s   XtUYYYYYYYYYYYYYYYYYYwX      ",
"{{{{{{{     %W[[[[[[[[[[[[[[[`i   @VYYYYYYYYYYYYYYYYYYY;      ",
"{{{{{{{    of][[[[[[[[[[[[[[[[/<   #AYYYYYYYYYYYYYYYYYYH#     ",
"{{{{{{     i_[[[[[[[[[[[[[[[[[]W$   :HYYYYYYYYYYYYYYYYYYt     ",
"{{{{{     <![[[[[[[[[[[[[[[[[[[]go   ,KYYYYYYYYYYYYYYYYt@     ",
"{{{{{    $g][[[[[[[[[[[[[[[[[[[[`p   XwIYYYYYYYYYYYYYK:X      ",
"{{{{     p`[[[[[[[[[[[[[[[[[[[[[[(<   XtYYYYYYYYYYYYt@        ",
"{{{     <^[[[[[[[[[[[[[[[[[[[[[[[[E$   @uYYYYYYYYYA:          ",
"{{     $T[[[[[[[[[[[[[[[[[[[[[[[[[]s    #CYYYYYYKw@          {",
"{{     a][[[[[[[[[[[[[[[[[[[[[[[[[[^<    ;CYYYLe@           {{",
"{     <~[[[[[[[[[[[[[[[[[[[[[[[[[[[[i     #CLe@X            {{",
"      <([[[[[[[[[[[[[[[[[[[[[[[[[[[[a      X@     .+*+      {{",
"      </[[[[[[[[[[[[[[[[[[[[[[[[[[[[s          .&7xnn8.     {{",
"      </[[[[[[[[[[[[[[[[[[[[[[[[[[[[so      .+5xmNBBBl.     {{",
"      %/[[[[[[[[[[[[[[[[[[[[[[[[[[[[s     .*0bNBBBBBBM.     {{",
"      %^[[[[[[[[[[[[[[[[[[[[[[[[[[[[s   .4zMBBBBBBBBBB.     {{",
"      <^[[[[[[[[[[[[[[[[[[[[[[[[[[[[s   7BBBBBBBBBBBBBO     {{",
"      %~[[[[[[[[[[[[[[[[[[[[[[[[[[[[s   7BBBBBBBBBBBBBO     {{",
"{{    %~[[[[[[[[[[[[[[[[[[[[[[[[[[[[s   7BBBBBBBBBBBBBO     {{",
"{{    %![[[[[[[[[[[[[[[[[[[[[[[[[[[[s  .7BBBBBBBBBBBBBO    {{{",
"{{    %![[[[[[[[[[[[[[[[[[[[[[[[[[[[ao  7BBBBBBBBBBBBBO    {{{",
"{{    %Q[[[[[[[[[[[[[[[[[[[[[[[[[[[[a  .7BBBBBBBBBBBBB+    {{{",
"{{    %Q[[[[[[[[[[[[[[[[[[[[[[[[[[[[a   7BBBBBBBBBBBBB+    {{{",
"{{    %W[[[[[[[[[])~WWQ~_[[[[[[[[[[[a   7BBBBBBBBBBBBBO    {{{",
"{{    %W[[[[[[[[]W3%$o$<iQ][[[[[[[[[a   7BBBBBBBBBBBBBO    {{{",
"{{    $W[[[[[[[[Q<       <E][[[[[[[[a  .7BBBBBBBBBBBBBO    {{{",
"{{    $R[[[[[[[[s         2)[[[[[[[[p   7BBBBBBBBBBBBBO    {{{",
"{{    $T[[[[[[[)3         $~[[[[[[[[p   7BBBBBBBBBBBBBO    {{{",
"{{    $h[[[[[[[~<          h][[[[[[[p   6BBBBBBBBBBBBBO    {{{",
"{{    $g[[[[[[[W%          a`[[[[[[[i   5BBBBBBBBBBBBB.    {{{",
"{{    of[[[[[[[E$          p`[[[[[[[i   4BBBBBBBBBBBBB.    {{{",
"{{    os[[[[[[[R$          i_[[[[[[]2   4BBBBBBBBBBBBc.    {{{",
"{{     a[[[[[[[To          3)[[[[[['2   -BBBBBBBBBBBBj.    {{{",
"{{     a[[[[[[[To          2)[[[[[[`1   -MBBBBBBBBBBB4     {{{",
"{{     i[[[[[[[ho          1)[[[[[[)<   =MBBBBBBBBBB6.     {{{",
"{{     3[[[[[[[ho          1)[[[[[[(<   =mBBBBBBBBj*.      {{{",
"{{     3[[[[[[[h           1)[[[[[[/<   =nBBBBBBk=.        {{{",
"{{     2][[[[[[h           1)[[[[[[^%   *vBBBmj=O        {{{{{",
"{{     2'[[[[[[ho          1)[[[[[[~%   +kBb9*O        {{{{{{{",
"{{{    2`[[[[[[ho          1([[[[[[~$    *4&.         {{{{{{{{",
"{{{    <^[[]][[h           1)]]]]]`R$               {{{{{{{{{{",
"{{{     %3pssss2           $22<%$oo               {{{{{{{{{{{{",
"{{{         o o                                 {{{{{{{{{{{{{{",
"{{{                                           {{{{{{{{{{{{{{{{",
"{{{                                         {{{{{{{{{{{{{{{{{{"
};
