<?xml version="1.0" encoding="UTF-8" standalone="no"?>
<!-- Created with Inkscape (http://www.inkscape.org/) -->
<svg
   xmlns:dc="http://purl.org/dc/elements/1.1/"
   xmlns:cc="http://web.resource.org/cc/"
   xmlns:rdf="http://www.w3.org/1999/02/22-rdf-syntax-ns#"
   xmlns:svg="http://www.w3.org/2000/svg"
   xmlns="http://www.w3.org/2000/svg"
   xmlns:xlink="http://www.w3.org/1999/xlink"
   xmlns:sodipodi="http://sodipodi.sourceforge.net/DTD/sodipodi-0.dtd"
   xmlns:inkscape="http://www.inkscape.org/namespaces/inkscape"
   width="297mm"
   height="210mm"
   id="svg2844"
   sodipodi:version="0.32"
   inkscape:version="0.44"
   sodipodi:docbase="/home/robin/tmp/asm_cdart"
   sodipodi:docname="logo.svg"
   inkscape:export-filename="/home/robin/tmp/asm_cdart/logo_small.png"
   inkscape:export-xdpi="23.129999"
   inkscape:export-ydpi="23.129999">
  <defs
     id="defs2846">
    <linearGradient
       inkscape:collect="always"
       id="linearGradient2820">
      <stop
         style="stop-color:red;stop-opacity:1;"
         offset="0"
         id="stop2822" />
      <stop
         style="stop-color:red;stop-opacity:0;"
         offset="1"
         id="stop2824" />
    </linearGradient>
    <linearGradient
       inkscape:collect="always"
       xlink:href="#linearGradient2820"
       id="linearGradient2826"
       x1="8.6899736"
       y1="42.147599"
       x2="47.19458"
       y2="42.147599"
       gradientUnits="userSpaceOnUse"
       gradientTransform="matrix(5.698013,0,0,5.45075,-5.926249,116.6099)" />
    <linearGradient
       inkscape:collect="always"
       id="linearGradient2828">
      <stop
         style="stop-color:lime;stop-opacity:1;"
         offset="0"
         id="stop2830" />
      <stop
         style="stop-color:lime;stop-opacity:0;"
         offset="1"
         id="stop2832" />
    </linearGradient>
    <linearGradient
       inkscape:collect="always"
       xlink:href="#linearGradient2828"
       id="linearGradient2834"
       x1="29.749166"
       y1="20.730871"
       x2="68.676781"
       y2="20.730871"
       gradientUnits="userSpaceOnUse"
       gradientTransform="matrix(5.698013,0,0,5.45075,-5.926249,116.6099)" />
    <linearGradient
       inkscape:collect="always"
       id="linearGradient2836">
      <stop
         style="stop-color:blue;stop-opacity:1;"
         offset="0"
         id="stop2838" />
      <stop
         style="stop-color:blue;stop-opacity:0;"
         offset="1"
         id="stop2840" />
    </linearGradient>
    <linearGradient
       inkscape:collect="always"
       xlink:href="#linearGradient2836"
       id="linearGradient2842"
       x1="44.912956"
       y1="51.613906"
       x2="65.898417"
       y2="51.613906"
       gradientUnits="userSpaceOnUse"
       gradientTransform="matrix(5.698013,0,0,5.45075,-5.926249,116.6099)" />
  </defs>
  <sodipodi:namedview
     inkscape:document-units="mm"
     pagecolor="#ffffff"
     bordercolor="#666666"
     borderopacity="1.0"
     inkscape:pageopacity="0.0"
     inkscape:pageshadow="2"
     inkscape:zoom="0.43415836"
     inkscape:cx="490"
     inkscape:cy="378.84835"
     inkscape:current-layer="layer1"
     id="namedview2848"
     inkscape:window-width="898"
     inkscape:window-height="580"
     inkscape:window-x="212"
     inkscape:window-y="163" />
  <metadata
     id="metadata2850">
    <rdf:RDF>
      <cc:Work
         rdf:about="">
        <dc:format>image/svg+xml</dc:format>
        <dc:type
           rdf:resource="http://purl.org/dc/dcmitype/StillImage" />
      </cc:Work>
    </rdf:RDF>
  </metadata>
  <g
     inkscape:label="Layer 1"
     inkscape:groupmode="layer"
     id="layer1">
    <path
       style="fill:url(#linearGradient2826);fill-opacity:1;fill-rule:evenodd;stroke:black;stroke-width:5.57301044px;stroke-linecap:butt;stroke-linejoin:miter;stroke-opacity:1"
       d="M 137.77177,184.17624 C 132.40544,188.45061 122.08127,194.52614 115.85175,200.48539 C 111.25083,204.88666 106.64422,206.96349 103.6739,209.80486 C 98.489285,214.76451 94.755215,219.62723 91.496125,223.78408 C 87.177029,229.293 83.650359,236.46482 80.536108,242.42309 C 77.34819,248.52227 75.269214,255.99459 72.011656,262.22703 C 69.193763,267.61816 68.634388,268.9525 64.704925,272.71145 C 61.677001,275.60803 59.408227,282.84521 57.398253,286.69067 C 54.620416,292.00525 53.122869,297.20037 50.091582,302.99981 C 47.726562,307.52458 48.710783,316.59398 47.656024,321.63876 C 46.477791,327.27423 46.438242,331.48571 46.438242,337.9479 C 46.438242,344.61717 47.656024,347.59781 47.656024,354.25699 C 47.656024,360.11972 50.091582,365.44918 50.091582,371.73101 C 50.091582,377.55574 50.091582,383.38041 50.091582,389.20508 C 50.091582,395.02975 50.091582,400.85443 50.091582,406.6791 C 50.091582,412.50383 50.091582,418.32851 50.091582,424.15318 C 50.091582,429.97786 50.091582,435.80253 50.091582,441.6272 C 50.091582,447.414 51.309357,452.86469 51.309357,459.10127 C 51.309357,465.31426 51.309357,471.52725 51.309357,477.74023 C 51.309357,482.13386 54.092042,488.38795 54.962696,491.71951 C 56.738428,498.51403 58.310906,501.54847 65.922765,503.36886 C 72.216957,504.87414 77.008362,505.69872 82.971664,505.69872 C 88.217028,505.69872 96.384215,508.32391 100.02057,509.19353 C 105.33094,510.46349 112.78115,509.19353 118.28731,509.19353 C 124.74646,509.19353 130.66236,510.11443 136.554,511.5234 C 142.97229,513.05833 151.85782,511.5234 158.47406,511.5234 C 164.56296,511.5234 170.65186,511.5234 176.74075,511.5234 C 182.8297,511.5234 188.9186,511.5234 195.00749,511.5234 C 199.50596,511.5234 206.85975,509.27141 212.0564,508.02859 C 218.24654,506.54822 226.12478,505.82905 231.54091,504.53379 C 239.10571,502.72463 241.66418,502.60416 247.37204,499.87405 C 251.92133,497.69811 254.54823,489.63928 255.89649,487.05976 C 258.52681,482.02741 258.11434,476.24362 259.54988,470.75062 C 260.87747,465.67075 259.54988,458.54378 259.54988,453.27661 C 259.54988,447.45194 259.54988,441.6272 259.54988,435.80253 C 259.54988,429.97786 259.54988,424.15318 259.54988,418.32851 C 259.54988,411.9689 258.5908,406.50409 257.11428,400.85443 C 255.7079,395.47285 257.11428,387.77366 257.11428,382.21548 C 257.11428,376.3908 257.11428,370.56608 257.11428,364.7414 C 257.11428,358.91673 257.11428,353.09206 257.11428,347.26738 C 257.11428,341.92286 255.89649,335.57639 255.89649,329.7933 C 255.89649,323.96863 255.89649,318.14395 255.89649,312.31929 C 255.89649,305.59905 254.98533,300.678 253.46094,294.84521 C 251.6741,288.0079 253.06498,283.98196 248.58983,279.70105 C 244.22099,275.52175 239.6819,271.17968 236.41203,268.05171 C 232.57653,264.38264 228.12941,263.62325 224.23425,259.89711 C 220.35772,256.18885 218.94683,252.11115 216.92751,248.24776 C 214.22939,243.08562 210.67258,238.76945 207.18528,235.43348 C 202.76887,231.20871 202.20539,227.17489 197.44305,222.61915 C 193.56983,218.91399 190.90458,213.89124 187.70082,209.80486 C 183.85836,204.90393 182.05711,199.74632 176.74075,194.66071 C 172.33437,190.44548 168.67237,187.78012 163.34518,186.50611 C 158.78541,185.41569 153.1878,182.03835 147.51406,180.68144 C 143.62494,179.75138 140.94734,182.35362 137.77177,184.17624 z "
       id="path1927" />
    <path
       style="fill:url(#linearGradient2834);fill-opacity:1;fill-rule:evenodd;stroke:black;stroke-width:5.57301044px;stroke-linecap:butt;stroke-linejoin:miter;stroke-opacity:1"
       d="M 166.99852,164.37236 C 170.77237,163.37067 179.91392,158.95376 186.48304,157.38274 C 192.98948,155.82672 197.52453,153.88795 204.74973,153.88795 C 212.20984,153.88795 221.5718,150.66949 229.10536,149.22815 C 237.1093,147.69687 240.90697,145.24087 248.58983,143.40348 C 253.90419,142.13258 255.66926,139.90867 263.20323,139.90867 C 269.02044,139.90867 276.27777,140.12316 280.25213,141.0736 C 284.69305,142.13568 291.03574,147.89445 293.6477,150.39308 C 298.57807,155.10951 301.30685,156.38635 305.82555,158.54768 C 309.95945,160.52494 316.30482,172.06702 320.43889,176.0217 C 325.57775,180.93757 329.50848,187.97809 333.83445,193.49578 C 338.10369,198.94103 340.91799,202.60175 346.0123,207.47499 C 351.3241,212.55629 352.52325,216.03327 356.97232,220.28928 C 362.11283,225.20679 364.91802,231.20043 369.15011,236.59842 C 372.36173,240.69476 374.38145,243.11223 376.45683,247.08283 C 379.49479,252.89513 382.54572,251.53108 382.54572,259.89711 C 382.54572,265.77346 378.10538,269.05552 375.23906,272.71145 C 371.41871,277.58415 368.83135,278.84103 365.49677,282.03092 C 361.89488,285.47651 358.81682,287.7057 353.31898,289.02054 C 350.59607,289.67174 345.10478,294.69684 342.35897,296.01015 C 338.00597,298.09222 332.94967,298.76321 328.96334,300.66994 C 323.89103,303.09601 320.5459,304.13912 315.56777,305.32968 C 310.58105,306.52225 306.91067,308.88787 302.17221,311.15435 C 298.00365,313.14817 294.65009,315.8656 289.99436,316.97902 C 285.43419,318.0696 278.97977,319.30889 272.94546,319.30889 C 264.57445,319.30889 263.87359,313.6019 260.76767,307.65954 C 257.7639,301.91276 254.661,297.10721 253.46094,292.51534 C 252.13746,287.45105 245.97967,283.02885 243.71871,280.86599 C 240.15973,277.46145 238.1926,272.6232 236.41203,269.21665 C 233.62929,263.89267 229.42638,260.20426 225.45202,256.4023 C 220.64489,251.80378 217.6784,245.47127 213.27417,241.25816 C 207.58539,235.81618 202.53571,229.47652 196.22527,224.94901 C 190.35359,220.73635 189.3937,214.91908 185.26527,210.9698 C 182.13329,207.97379 180.11717,201.75557 179.17631,198.15551 C 177.90634,193.29589 174.92155,190.0152 173.08741,186.50611 C 170.28867,181.15151 169.01391,176.38276 166.99852,172.5269 C 165.72775,170.0957 166.99852,167.09054 166.99852,164.37236 z "
       id="path2816" />
    <path
       style="fill:url(#linearGradient2842);fill-opacity:1;fill-rule:evenodd;stroke:black;stroke-width:5.57301044px;stroke-linecap:butt;stroke-linejoin:miter;stroke-opacity:1"
       d="M 255.89649,339.11283 C 252.96931,333.51251 255.04846,351.67742 253.46094,357.75179 C 252.05746,363.1221 253.46094,370.79255 253.46094,376.3908 C 253.46094,383.33261 255.89649,389.03082 255.89649,396.19469 C 255.89649,404.00546 257.11428,411.03186 257.11428,418.32851 C 257.11428,426.28797 258.33211,433.93532 258.33211,441.6272 C 258.33211,447.45194 258.33211,453.27661 258.33211,459.10127 C 258.33211,464.92595 258.33211,470.75062 258.33211,476.5753 C 258.33211,483.39534 258.25962,488.08604 260.76767,492.88444 C 263.38129,497.8849 272.01742,497.54418 277.81658,497.54418 C 281.94752,497.54418 288.77253,493.46882 292.42992,491.71951 C 297.86206,489.1213 303.54001,487.31508 309.47887,485.89483 C 314.96464,484.58289 321.12971,483.23454 325.31,481.23504 C 330.38613,478.80716 335.92637,477.32216 339.92341,475.41036 C 344.76409,473.09504 347.15641,470.8211 350.88343,467.25582 C 355.52696,462.81379 357.79938,461.01372 360.62565,455.60648 C 363.01175,451.04142 363.06121,446.97647 363.06121,440.46227 C 363.06121,434.6376 363.06121,428.81292 363.06121,422.98825 C 363.06121,417.16357 363.06121,411.3389 363.06121,405.51417 C 363.06121,399.6895 363.06121,393.86482 363.06121,388.04015 C 363.06121,381.82411 364.27898,376.93288 364.27898,370.56608 C 364.27898,364.82185 365.49677,358.30696 365.49677,351.92712 C 365.49677,345.7584 366.71455,339.89382 366.71455,333.28811 C 366.71455,327.22175 366.63158,320.15621 365.49677,315.81409 C 364.05699,310.30491 362.84531,307.24649 360.62565,302.99981 C 358.68604,299.28893 351.22917,298.34002 346.0123,298.34002 C 341.72096,298.34002 337.00438,301.95049 332.61668,302.99981 C 327.11451,304.31562 323.07673,307.61114 318.00333,308.82448 C 313.38971,309.92782 308.05129,313.0021 304.60776,314.64916 C 300.15631,316.77827 296.33665,320.00081 292.42992,322.80369 C 288.49835,325.62441 279.48894,326.48104 275.38101,327.46343 C 269.62192,328.84073 266.42476,329.99984 261.98545,332.12317 C 257.57045,334.2349 258.71399,332.37483 255.89649,339.11283 z "
       id="path2818" />
    <path
       style="fill:black"
       d="M 43.45642,516.33178 C 41.367186,514.33315 39.657779,476.40043 39.657779,432.03687 C 39.657779,356.95446 38.869574,350.97237 28.261758,345.54157 C 21.993948,342.33265 16.916166,336.72748 16.977877,333.08556 C 17.03953,329.44364 44.603657,287.42003 78.231492,239.69973 L 139.37297,152.93559 L 179.25905,143.12903 C 284.26245,117.31242 278.78598,116.655 314.39825,159.35199 C 326.04676,173.3178 351.11487,202.56698 370.1052,224.35014 C 406.1119,265.65218 407.63338,272.57878 384.69849,290.78701 C 377.4161,296.56868 375.84042,312.17849 375.84042,378.54232 L 375.84042,459.26502 L 360.1709,469.59752 C 351.55265,475.28037 326.04419,488.93799 303.48543,499.9478 L 262.46955,519.96563 L 154.86232,519.96563 C 95.678345,519.96563 45.545711,518.33041 43.45642,516.33178 z M 113.73192,454.19822 C 113.73192,399.3558 118.83443,389.14758 146.24728,389.14758 C 180.68811,389.14758 187.80607,400.07949 187.80607,452.97463 L 187.80607,498.75991 L 214.87161,497.09859 L 241.93717,495.43725 L 245.0211,400.04909 C 247.68116,317.77259 246.85045,303.1624 238.97762,293.75942 C 233.95756,287.76359 226.15949,277.65206 221.64865,271.28945 C 206.61092,250.0784 166.06605,200.15633 156.25304,190.76909 C 147.13605,182.04772 144.03337,185.18779 103.50313,244.15463 L 60.439967,306.80655 L 61.904523,398.26576 C 62.709999,448.5683 64.595584,491.62341 66.094732,493.94374 C 67.593822,496.26412 78.925455,498.16262 91.276115,498.16262 L 113.73192,498.16262 L 113.73192,454.19822 z M 314.83718,470.90886 C 332.54078,463.41407 348.26011,454.3159 349.769,450.69077 C 354.7514,438.72015 354.44787,317.44163 349.42404,312.86708 C 346.71657,310.40177 327.19366,315.84592 306.03979,324.96525 L 267.57822,341.54583 L 267.57822,410.76962 C 267.57822,475.11886 269.80898,489.77484 279.03088,486.01197 C 281.02067,485.20002 297.13357,478.40365 314.83718,470.90886 z M 317.59256,298.81581 C 332.5189,291.10413 350.89607,280.34631 358.43072,274.90952 L 372.13011,265.02447 L 352.89977,241.23668 C 301.97152,178.23875 273.64728,149.31449 262.88459,149.31449 C 258.6043,149.31449 237.43385,154.44817 215.8392,160.72275 C 180.93654,170.86409 177.20018,173.24656 182.19563,182.17555 C 194.24328,203.70988 283.07453,312.83705 288.55623,312.83705 C 289.59983,312.83705 302.66622,306.52748 317.59256,298.81581 z "
       id="path1873" />
    <flowRoot
       xml:space="preserve"
       id="flowRoot2869"
       style="font-size:280px;font-style:normal;font-variant:normal;font-weight:normal;font-stretch:normal;text-align:start;line-height:125%;writing-mode:lr-tb;text-anchor:start;font-family:Bitstream Vera Serif"
       transform="matrix(1.370896,0,0,1.522052,-311.2394,-84.47964)"><flowRegion
         id="flowRegion2871"><rect
           id="rect2873"
           width="504.42422"
           height="518.24408"
           x="511.33417"
           y="103.77513"
           style="font-size:280px;font-style:normal;font-variant:normal;font-weight:normal;font-stretch:normal;text-align:start;line-height:125%;writing-mode:lr-tb;text-anchor:start;font-family:Bitstream Vera Serif" /></flowRegion><flowPara
         id="flowPara2875"
         style="font-size:280px;font-style:normal;font-variant:normal;font-weight:normal;font-stretch:normal;text-align:start;line-height:125%;writing-mode:lr-tb;text-anchor:start;font-family:Bitstream Vera Serif">SM</flowPara></flowRoot>  </g>
</svg>
