/* XPM */
static char *asm[] = {
/* columns rows colors chars-per-pixel */
"64 64 64 1",
"  c #00027CEC0002",
". c #0A3882FB0A38",
"X c #04E6974604E6",
"o c #00419D6C0041",
"O c #0AB39D160AB3",
"+ c #12459DD51245",
"@ c #1A0F9F581A0F",
"# c #1648A6751648",
"$ c #1D15A3191D15",
"% c #23A79E7523A7",
"& c #2435A2152435",
"* c #2BA5A4412BA5",
"= c #3352A6EB3352",
"- c #372BA881372B",
"; c #39B6A35039B6",
": c #3B98A9E33B98",
"> c #35D5B27535D5",
", c #37CFB32937CF",
"< c #4409ACC64409",
"1 c #4A10AED44A10",
"2 c #4E28B0C24E28",
"3 c #47D6B9A247D6",
"4 c #5025A7155025",
"5 c #53A2B26453A2",
"6 c #5BFCB5DB5BFC",
"7 c #64FEB57D64FE",
"8 c #6583B8E56583",
"9 c #6969B7656969",
"0 c #6D2BBCED6D2B",
"q c #73D9BE9773D9",
"w c #7925C0037925",
"e c #75C1C0FF75C1",
"r c #73E5CA8F73E5",
"t c #7CD7C2E77CD7",
"y c #792CCBE1792C",
"u c #8390C4CF8390",
"i c #8589CA4A8589",
"p c #89CFC6CD89CF",
"a c #8CAFC9D08CAF",
"s c #84BBD07084BB",
"d c #961DCC48961D",
"f c #9ACDCE269ACD",
"g c #9038D54D9038",
"h c #9F93D0FF9F93",
"j c #A48AD2FEA48A",
"k c #AA5FD57CAA5F",
"l c #B021DBD4B021",
"z c #B0B5D837B0B5",
"x c #B3ECD99BB3EC",
"c c #BC06DD39BC06",
"v c #B3A1E295B3A1",
"b c #C101DF9EC101",
"n c #C580E1CCC580",
"m c #CBE9E4ACCBE9",
"M c #D15BE7CAD15B",
"N c #D5BEE9A8D5BE",
"B c #DD85ED54DD85",
"V c #E266EFCAE266",
"C c #E5EFF18CE5EF",
"Z c #EC5BF4F2EC5B",
"A c #F1D8F776F1D8",
"S c #F678F9EEF678",
"D c #FFDFFFE6FFDF",
"F c None",
/* pixels */
"FFFFlsyyyyyyyyyyyyyyyyyyyyyyyyyyyyyyyyyyyyyyyyyyyyyyyyyyyyyyyyyv",
"FFFFa#ooooooooooooooooooooooooooooooooooooooooooooooooooooooooOr",
"FFFFi#ooooooooooooooooooooooooooooooooooooooooooooooooooooooooor",
"FFFFu#ooooooooooooooooooooooooooooooooooooooooooooooooooooooooor",
"FFFFt#ooooooooooooooooooooooooooooooooooooooooooooooooooooooooor",
"FFF.t#oooooooooooooooooooooooooooOOoooooooooooooooooooooooooooor",
"FF .e#oooooooooooooooooooooooooO1jj1Ooooooooooooooooooooooooooor",
"F  .e#oooooooooooooooooooooooO2kZDDZk1Ooooooooooooooooooooooooor",
"F  .q#oooooooooooooooooooooO1kZDDDDDDZj1Ooooooooooooooooooooooor",
"F  .q#oooooooooooooooooooO2kZDDDDDDDDDDZj<Ooooooooooooooooooooor",
"   .0#ooooooooooooooooo+2kZDDDDDDDDDDDDDDZj<Ooooooooooooooooooor",
"   .0#ooooooooooooooo+2zZDDDDDDDDDDDDDDDDDDZj<Ooooooooooooooooor",
"   .0#ooooooooooooo+5zZDDDDDDDDDDDDDDDDDDDDDDZh<Ooooooooooooooor",
"   .0#ooooooooooo+5xADDDDDDDDDDDDDDDDDDDDDDDDDDZh<Ooooooooooooor",
"   .0#ooooooooo+5xADDDDDDDDDDDDDDDDDDDDDDDDDDDDDDCf:Ooooooooooor",
"   .0#ooooooo+5xADDDDDDDDDDABZDDDDDDDDDDDDDDDDDDDDDCf:Ooooooooor",
"   .0#ooooo+6xADDDDDDDDDDDn5*<dZDDDDDDZcjmSDDDDDDDDDDCf:Ooooooor",
"   .0#ooo@6cSDDDDDDDDDDDDV:oooOqADDDDc1+X@pSDDDDDDDDDDDCd:Ooooor",
"   .0#oX;dNVCCSDDDDDDDDDDjOooooOdDDDc&oooo+kDDDDDDDDDSZAAMu*Xoor",
"   .0#oX@**==:cDDDDDDDDDDqoooooo-VDC<oooooo6SDDDDDDDDf<<<<<%Xoor",
"   .0#oooooooOkDDDDDDDDDS6ooooooOkDjOoooooo=VDDDDDDDDtooooooooor",
"   .0#oooooooOkDDDDDDDDDS6oooooooqS6ooooooo&BDDDDDDDDtooooooooor",
"   .0#oooooooOkDDDDDDDDDDeooooooo5B-ooooooo-CDDDDDDDDtooooooooor",
"   .0#oooooooOkDDDDDDDDDDdXoooooo<m&ooooooo6SDDDDDDDDtooooooooor",
"   .0#oooooooOkDDDDZcxBSDm$oooooo5N*ooooooOjDDDDDDDDDtooooooooor",
"   .0#oooooooOkDDDB5+O&tCS8oooooouZ<oooooo<CDDDDDDDDDtooooooooor",
"   .0#oooooooOkDDDqooooX6CM=oooo*mDaOoooo&cDZxfcSDDDDtooooooooor",
"   .0#oooooooOkDDZ=oooooXtSn<+O-zDDZ9OoX*kDb1OX+qADDDtooooooooor",
"   .0#oooooooOkDDB&oooooo&mDZcxBDDDDAjqaNDc*ooooOjDDDtooooooooor",
"   .0#oooooooOkDDV&ooooooopDDDDDDDDDDDDDDB:oooooo6SDDtooooooooor",
"   .0#oooooooOkDDA<ooooooo6SDDDDAZADDDDDDuXoooooo:ZDDtooooooooor",
"   .0#oooooooOkDDDdXoooooo<ZDDBa1:1tmDDDZ-ooooooo:ZDDtooooooooor",
"   .0#oooooooOkDDDV<oooooo<ZSj=Xoooo&dADN@ooooooo6SDDtooooooooor",
"   .0#oooooooOkDDDDb*ooooXtZt+oooooooOwAN@ooooooXdDDDtooooooooor",
"   .0#oooooooOkDDDDDn5OoO8NqOoooooooooOqB-oooooo:VDDDtooooooooor",
"   .0#oooooooOkDDDDDDZzpjCuOoooooooooooOupOoooo&xDDDDtooooooooor",
"   .0#oooooooOkDDDDDDDDDDj+ooooooooooooo@ft@O+1cDDDDDtooooooooor",
"   .0#oooooooOkDDDDDDDDDM*ooooooooooooooo-MmjcZDDDDDDtooooooooor",
"   .0#oooooooOkDDDDDDDDS9oooooooooooooooootDDDDDDDDDDtooooooooor",
"   .0#oooooooOkDDDDDDDDn@ooooooooooooooooo*NDDDDDDDDDtooooooooor",
"   .0#oooooooOkDDDDDDDDqooooooooooooooooooXfDDDDDDDDDtooooooooor",
"   .0#oooooooOkDDDDDDDZ-ooooooooooooooooooo8DDDDDDDDDtooooooooor",
"   .0#oooooooOkDDDDDDDC%ooooooooooooooooooo5SDDDDDDDDtooooooooor",
"   .0#oooooooOkDDDDDDDZ<oooooooooooooooooooqDDDDDDDDDtooooooooor",
"   .0#oooooooOkDDDDDDDDc=ooooooX+$=&Oooooo=mDDDDDDDDDtooooooooor",
"   .0#oooooooOkDDDDDDDDDNp5115wdcMVNzu515uMDDDDDDDDDDtooooooooor",
"   .0#oooooooOkDDDDDDDDDDDSAASDDDDDDDDSASDDDDDDDDDDDDtooooooooor",
"   .0#oooooooOkDDDDDDDDDDDDDDDDDDDDDDDDDDDDDDDDDDDDDDtooooooooor",
"   .0#oooooooOkDDDDDDDDDDDDDDDDDDDDDDDDDDDDDDDDDDDDDDtooooooooor",
"   .0#oooooooOkDDDDDDDDDDDDDDDDDDDDDDDDDDDDDDDDDDDDDDtooooooooor",
"   .0#oooooooOkDDDDDDDDDDDDDDDDDDDDDDDDDDDDDDDDDDDDDDtooooooooor",
"   .0#oooooooOkDDDDDDDDDDDDDDDDDDDDDDDDDDDDDDDDDDDDDDtooooooooor",
"   .0#oooooooOpMMMMMMMMMMMMMMMMMMMMMMMMMMMMMMMMMMMMMM8ooooooooor",
"   .0#oooooooo+@@@@@@@@@@@@@@@@@@@@@@@@@@@@@@@@@@@@@@Oooooooooor",
"   .0#ooooooooooooooooooooooooooooooooooooooooooooooooooooooooor",
"   .0#ooooooooooooooooooooooooooooooooooooooooooooooooooooooooor",
"   .0#ooooooooooooooooooooooooooooooooooooooooooooooooooooooooor",
"F  .q#ooooooooooooooooooooooooooooooooooooooooooooooooooooooooor",
"F  .t3>>>>>>>>>>>>>>>>>>>>>>>>>>>>>>>>>>>>>>>>>>>>>>>>>>>>>>>>,g",
"F   409977777777777777777777777777777777777777777777779990qqtuph",
"FF                                                          FFFF",
"FFF                                                        FFFFF",
"FFFF                                                      FFFFFF",
"FFFFFF                                                 FFFFFFFFF"
};
