<?xml version="1.0" encoding="UTF-8" standalone="no"?>
<!-- Created with Inkscape (http://www.inkscape.org/) -->
<svg
   xmlns:dc="http://purl.org/dc/elements/1.1/"
   xmlns:cc="http://creativecommons.org/ns#"
   xmlns:rdf="http://www.w3.org/1999/02/22-rdf-syntax-ns#"
   xmlns:svg="http://www.w3.org/2000/svg"
   xmlns="http://www.w3.org/2000/svg"
   xmlns:xlink="http://www.w3.org/1999/xlink"
   xmlns:sodipodi="http://sodipodi.sourceforge.net/DTD/sodipodi-0.dtd"
   xmlns:inkscape="http://www.inkscape.org/namespaces/inkscape"
   width="744.09448819"
   height="1052.3622047"
   id="svg2"
   sodipodi:version="0.32"
   inkscape:version="0.46"
   sodipodi:docname="asmlogo2009_3.svg"
   inkscape:output_extension="org.inkscape.output.svg.inkscape"
   inkscape:export-filename="/home/robin/workspace/sheltermanager/logo/asm2009/logo_215.png"
   inkscape:export-xdpi="40.740002"
   inkscape:export-ydpi="40.740002">
  <defs
     id="defs4">
    <linearGradient
       inkscape:collect="always"
       id="linearGradient4607">
      <stop
         style="stop-color:#000000;stop-opacity:1;"
         offset="0"
         id="stop4609" />
      <stop
         style="stop-color:#000000;stop-opacity:0;"
         offset="1"
         id="stop4611" />
    </linearGradient>
    <inkscape:perspective
       sodipodi:type="inkscape:persp3d"
       inkscape:vp_x="0 : 526.18109 : 1"
       inkscape:vp_y="0 : 1000 : 0"
       inkscape:vp_z="744.09448 : 526.18109 : 1"
       inkscape:persp3d-origin="372.04724 : 350.78739 : 1"
       id="perspective10" />
    <filter
       inkscape:collect="always"
       id="filter4679"
       x="-0.1764576"
       width="1.3529152"
       y="-0.19522138"
       height="1.3904428">
      <feGaussianBlur
         inkscape:collect="always"
         stdDeviation="26.227061"
         id="feGaussianBlur4681" />
    </filter>
    <inkscape:perspective
       id="perspective2454"
       inkscape:persp3d-origin="372.04724 : 350.78739 : 1"
       inkscape:vp_z="744.09448 : 526.18109 : 1"
       inkscape:vp_y="0 : 1000 : 0"
       inkscape:vp_x="0 : 526.18109 : 1"
       sodipodi:type="inkscape:persp3d" />
    <linearGradient
       inkscape:collect="always"
       xlink:href="#linearGradient4607"
       id="linearGradient4615"
       x1="133.82089"
       y1="628.76007"
       x2="608.74469"
       y2="628.76007"
       gradientUnits="userSpaceOnUse" />
  </defs>
  <sodipodi:namedview
     id="base"
     pagecolor="#ffffff"
     bordercolor="#666666"
     borderopacity="1.0"
     gridtolerance="10000"
     guidetolerance="10"
     objecttolerance="10"
     inkscape:pageopacity="0.0"
     inkscape:pageshadow="2"
     inkscape:zoom="0.35"
     inkscape:cx="356.19748"
     inkscape:cy="582.66407"
     inkscape:document-units="px"
     inkscape:current-layer="layer1"
     showgrid="false"
     inkscape:window-width="966"
     inkscape:window-height="800"
     inkscape:window-x="69"
     inkscape:window-y="69" />
  <metadata
     id="metadata7">
    <rdf:RDF>
      <cc:Work
         rdf:about="">
        <dc:format>image/svg+xml</dc:format>
        <dc:type
           rdf:resource="http://purl.org/dc/dcmitype/StillImage" />
      </cc:Work>
    </rdf:RDF>
  </metadata>
  <g
     inkscape:label="Layer 1"
     inkscape:groupmode="layer"
     id="layer1">
    <rect
       style="opacity:1;fill:#008000;stroke:#000000;stroke-opacity:1;filter:url(#filter4679)"
       id="rect2383"
       width="355.71429"
       height="321.42856"
       x="198.57143"
       y="319.505"
       transform="matrix(0.8437678,0,0,0.8759919,30.953109,39.551057)"
       inkscape:export-filename="/mnt/disk2/workspace/sheltermanager/logo/asm2009/logo3_206.png"
       inkscape:export-xdpi="59.549999"
       inkscape:export-ydpi="59.549999" />
    <rect
       style="opacity:1;fill:#009d00;fill-opacity:1;stroke:#ffffff;stroke-width:2.4879353;stroke-linejoin:round;stroke-miterlimit:4;stroke-dasharray:none;stroke-opacity:1"
       id="rect2385"
       width="287.65491"
       height="273.3692"
       x="220.45825"
       y="305.67758"
       inkscape:export-filename="/mnt/disk2/workspace/sheltermanager/logo/asm2009/logo3_206.png"
       inkscape:export-xdpi="59.549999"
       inkscape:export-ydpi="59.549999" />
    <g
       id="g2389"
       transform="translate(0,12)">
      <path
         sodipodi:nodetypes="cccccccc"
         id="path3263"
         d="M 267.17532,538.44996 L 458.86908,538.44996 L 458.86908,381.86956 L 492.4155,381.86956 L 363.51845,319.86792 L 233.6289,381.25396 L 267.17532,381.56177 L 267.17532,538.44996 z"
         style="fill:#ffffff;fill-rule:evenodd;stroke:#006400;stroke-width:1.11079168px;stroke-linecap:butt;stroke-linejoin:miter;stroke-opacity:1" />
      <path
         id="path2460"
         d="M 315.94775,499.96087 C 308.39254,494.10123 308.41038,486.71181 316.01238,473.18522 C 326.94075,453.73988 347.35078,437.27049 360.52045,437.27049 C 370.84464,437.27049 378.73458,441.40315 389.98608,452.70422 C 409.3348,472.13822 415.93936,493.17454 405.05874,500.71247 C 398.63599,505.16204 387.61287,505.58119 375.66211,501.83026 C 368.47382,499.57411 365.10774,499.56755 354.80385,501.78955 C 335.42561,505.96843 322.93577,505.38062 315.94775,499.96087 z M 403.56724,460.53193 C 394.44078,451.46951 395.6977,436.99627 406.62836,425.28334 C 421.38948,409.46584 440.22169,415.71872 440.22169,436.43738 C 440.22169,457.84564 416.53936,473.41305 403.56724,460.53193 z M 302.90224,453.37921 C 289.8409,446.19744 282.73067,430.10212 287.2,417.83433 C 294.83503,396.87703 325.43211,410.66508 327.77306,436.11788 C 328.65165,445.67062 328.12729,447.45571 323.11517,451.97493 C 316.41431,458.01683 311.90616,458.33004 302.90224,453.37921 z M 379.84248,423.04905 C 369.64083,417.66255 366.22568,406.9274 370.19361,392.71892 C 376.76482,369.18855 401.54031,362.01218 409.66705,381.28519 C 418.29679,401.75105 396.72256,431.96178 379.84248,423.04905 z M 335.29164,420.31223 C 327.14863,415.16952 321.65886,403.0747 321.65886,390.27711 C 321.65886,371.88978 331.02594,363.24748 344.64121,369.073 C 360.91508,376.03605 368.01237,407.53341 355.79058,418.55335 C 349.59428,424.14032 342.33882,424.76287 335.29164,420.31223 z"
         style="fill:#009d00;fill-opacity:1;stroke:#006400;stroke-width:1.1757251;stroke-opacity:1" />
    </g>
    <text
       xml:space="preserve"
       style="font-size:36px;font-style:normal;font-variant:normal;font-weight:normal;font-stretch:normal;text-align:start;line-height:125%;writing-mode:lr-tb;text-anchor:start;fill:#000000;fill-opacity:1;stroke:#000000;stroke-width:1px;stroke-linecap:butt;stroke-linejoin:miter;stroke-opacity:1;font-family:Arial Black;-inkscape-font-specification:Arial Black"
       x="134.28574"
       y="638.07648"
       id="text2387"
       sodipodi:linespacing="125%"><tspan
         sodipodi:role="line"
         id="tspan2389"
         x="134.28574"
         y="638.07648"
         style="font-size:36px;font-style:normal;font-variant:normal;font-weight:normal;font-stretch:normal;text-align:start;line-height:125%;writing-mode:lr-tb;text-anchor:start;font-family:Arial Black;-inkscape-font-specification:Arial Black;fill-opacity:1;fill:#000000;stroke:#000000;stroke-opacity:1">Animal Shelter Manager</tspan></text>
  </g>
</svg>
